<mxfile>
    <diagram id="4BbwGaaSppJdEhOWHZwW" name="Page-1">
        <mxGraphModel dx="1268" dy="1049" grid="0" gridSize="10" guides="1" tooltips="1" connect="1" arrows="1" fold="1" page="1" pageScale="1" pageWidth="827" pageHeight="1169" background="#F1FAEE" math="0" shadow="0">
            <root>
                <mxCell id="0"/>
                <mxCell id="1" parent="0"/>
                <mxCell id="2" value="&lt;p style=&quot;margin: 0px ; margin-top: 4px ; text-align: center&quot;&gt;&lt;i&gt;&amp;lt;&amp;lt;Interface&amp;gt;&amp;gt;&lt;/i&gt;&lt;br&gt;&lt;b&gt;IMediator&lt;/b&gt;&lt;/p&gt;&lt;hr size=&quot;1&quot;&gt;&lt;p style=&quot;margin: 0px ; margin-left: 4px&quot;&gt;&lt;br&gt;&lt;/p&gt;&lt;hr size=&quot;1&quot;&gt;&lt;p style=&quot;margin: 0px ; margin-left: 4px&quot;&gt;public notify( sender: object, event: string) :void&lt;/p&gt;" style="verticalAlign=top;align=left;overflow=fill;fontSize=12;fontFamily=Helvetica;html=1;fillColor=#A8DADC;strokeColor=#457B9D;fontColor=#1D3557;sketch=1;" parent="1" vertex="1">
                    <mxGeometry x="290" y="280" width="270" height="120" as="geometry"/>
                </mxCell>
                <mxCell id="3" value="Mediator&#10;" style="swimlane;fontStyle=1;align=center;verticalAlign=top;childLayout=stackLayout;horizontal=1;startSize=26;horizontalStack=0;resizeParent=1;resizeParentMax=0;resizeLast=0;collapsible=1;marginBottom=0;fillColor=#A8DADC;strokeColor=#457B9D;fontColor=#1D3557;sketch=1;" parent="1" vertex="1">
                    <mxGeometry x="144" y="480" width="270" height="114" as="geometry"/>
                </mxCell>
                <mxCell id="4" value="- button: Button&#10;- checkbox: CheckBox" style="text;strokeColor=none;fillColor=none;align=left;verticalAlign=top;spacingLeft=4;spacingRight=4;overflow=hidden;rotatable=0;points=[[0,0.5],[1,0.5]];portConstraint=eastwest;fontColor=#1D3557;sketch=1;" parent="3" vertex="1">
                    <mxGeometry y="26" width="270" height="54" as="geometry"/>
                </mxCell>
                <mxCell id="5" value="" style="line;strokeWidth=1;fillColor=none;align=left;verticalAlign=middle;spacingTop=-1;spacingLeft=3;spacingRight=3;rotatable=0;labelPosition=right;points=[];portConstraint=eastwest;labelBackgroundColor=#F1FAEE;strokeColor=#457B9D;fontColor=#1D3557;sketch=1;" parent="3" vertex="1">
                    <mxGeometry y="80" width="270" height="8" as="geometry"/>
                </mxCell>
                <mxCell id="6" value="public notify( sender: object, event: string) :void" style="text;strokeColor=none;fillColor=none;align=left;verticalAlign=top;spacingLeft=4;spacingRight=4;overflow=hidden;rotatable=0;points=[[0,0.5],[1,0.5]];portConstraint=eastwest;fontColor=#1D3557;sketch=1;" parent="3" vertex="1">
                    <mxGeometry y="88" width="270" height="26" as="geometry"/>
                </mxCell>
                <mxCell id="7" value="" style="endArrow=block;dashed=1;endFill=0;endSize=12;html=1;exitX=0.5;exitY=0;exitDx=0;exitDy=0;entryX=0.5;entryY=1;entryDx=0;entryDy=0;edgeStyle=orthogonalEdgeStyle;labelBackgroundColor=#F1FAEE;strokeColor=#457B9D;fontColor=#1D3557;sketch=1;" parent="1" source="3" target="2" edge="1">
                    <mxGeometry width="160" relative="1" as="geometry">
                        <mxPoint x="330" y="530" as="sourcePoint"/>
                        <mxPoint x="490" y="530" as="targetPoint"/>
                    </mxGeometry>
                </mxCell>
                <mxCell id="8" value="Component" style="swimlane;fontStyle=1;align=center;verticalAlign=top;childLayout=stackLayout;horizontal=1;startSize=26;horizontalStack=0;resizeParent=1;resizeParentMax=0;resizeLast=0;collapsible=1;marginBottom=0;fillColor=#A8DADC;strokeColor=#457B9D;fontColor=#1D3557;sketch=1;" parent="1" vertex="1">
                    <mxGeometry x="136" y="720" width="228" height="86" as="geometry">
                        <mxRectangle x="95" y="720" width="94" height="26" as="alternateBounds"/>
                    </mxGeometry>
                </mxCell>
                <mxCell id="9" value="# mediator: IMediator" style="text;strokeColor=none;fillColor=none;align=left;verticalAlign=top;spacingLeft=4;spacingRight=4;overflow=hidden;rotatable=0;points=[[0,0.5],[1,0.5]];portConstraint=eastwest;fontColor=#1D3557;sketch=1;" parent="8" vertex="1">
                    <mxGeometry y="26" width="228" height="26" as="geometry"/>
                </mxCell>
                <mxCell id="10" value="" style="line;strokeWidth=1;fillColor=none;align=left;verticalAlign=middle;spacingTop=-1;spacingLeft=3;spacingRight=3;rotatable=0;labelPosition=right;points=[];portConstraint=eastwest;labelBackgroundColor=#F1FAEE;strokeColor=#457B9D;fontColor=#1D3557;sketch=1;" parent="8" vertex="1">
                    <mxGeometry y="52" width="228" height="8" as="geometry"/>
                </mxCell>
                <mxCell id="11" value="+setMediator ( medator: Imediator) : void" style="text;strokeColor=none;fillColor=none;align=left;verticalAlign=top;spacingLeft=4;spacingRight=4;overflow=hidden;rotatable=0;points=[[0,0.5],[1,0.5]];portConstraint=eastwest;fontColor=#1D3557;sketch=1;" parent="8" vertex="1">
                    <mxGeometry y="60" width="228" height="26" as="geometry"/>
                </mxCell>
                <mxCell id="12" value="Button" style="swimlane;fontStyle=1;align=center;verticalAlign=top;childLayout=stackLayout;horizontal=1;startSize=26;horizontalStack=0;resizeParent=1;resizeParentMax=0;resizeLast=0;collapsible=1;marginBottom=0;fillColor=#A8DADC;strokeColor=#457B9D;fontColor=#1D3557;sketch=1;" parent="1" vertex="1">
                    <mxGeometry x="460" y="640" width="160" height="90" as="geometry"/>
                </mxCell>
                <mxCell id="14" value="" style="line;strokeWidth=1;fillColor=none;align=left;verticalAlign=middle;spacingTop=-1;spacingLeft=3;spacingRight=3;rotatable=0;labelPosition=right;points=[];portConstraint=eastwest;labelBackgroundColor=#F1FAEE;strokeColor=#457B9D;fontColor=#1D3557;sketch=1;" parent="12" vertex="1">
                    <mxGeometry y="26" width="160" height="8" as="geometry"/>
                </mxCell>
                <mxCell id="15" value="+ click(): void&#10;+ changeColor() : void&#10;" style="text;strokeColor=none;fillColor=none;align=left;verticalAlign=top;spacingLeft=4;spacingRight=4;overflow=hidden;rotatable=0;points=[[0,0.5],[1,0.5]];portConstraint=eastwest;fontColor=#1D3557;sketch=1;" parent="12" vertex="1">
                    <mxGeometry y="34" width="160" height="56" as="geometry"/>
                </mxCell>
                <mxCell id="16" value="CheckBox" style="swimlane;fontStyle=1;align=center;verticalAlign=top;childLayout=stackLayout;horizontal=1;startSize=26;horizontalStack=0;resizeParent=1;resizeParentMax=0;resizeLast=0;collapsible=1;marginBottom=0;fillColor=#A8DADC;strokeColor=#457B9D;fontColor=#1D3557;sketch=1;" parent="1" vertex="1">
                    <mxGeometry x="460" y="780" width="160" height="90" as="geometry"/>
                </mxCell>
                <mxCell id="17" value="" style="line;strokeWidth=1;fillColor=none;align=left;verticalAlign=middle;spacingTop=-1;spacingLeft=3;spacingRight=3;rotatable=0;labelPosition=right;points=[];portConstraint=eastwest;labelBackgroundColor=#F1FAEE;strokeColor=#457B9D;fontColor=#1D3557;sketch=1;" parent="16" vertex="1">
                    <mxGeometry y="26" width="160" height="8" as="geometry"/>
                </mxCell>
                <mxCell id="18" value="+ check(): void&#10;+ hover() : void&#10;" style="text;strokeColor=none;fillColor=none;align=left;verticalAlign=top;spacingLeft=4;spacingRight=4;overflow=hidden;rotatable=0;points=[[0,0.5],[1,0.5]];portConstraint=eastwest;fontColor=#1D3557;sketch=1;" parent="16" vertex="1">
                    <mxGeometry y="34" width="160" height="56" as="geometry"/>
                </mxCell>
                <mxCell id="19" value="" style="endArrow=open;endFill=1;endSize=12;html=1;exitX=1.012;exitY=0.241;exitDx=0;exitDy=0;exitPerimeter=0;entryX=1.007;entryY=0.438;entryDx=0;entryDy=0;entryPerimeter=0;labelBackgroundColor=#F1FAEE;strokeColor=#457B9D;fontColor=#1D3557;sketch=1;" parent="1" source="18" target="2" edge="1">
                    <mxGeometry width="160" relative="1" as="geometry">
                        <mxPoint x="330" y="530" as="sourcePoint"/>
                        <mxPoint x="490" y="530" as="targetPoint"/>
                        <Array as="points">
                            <mxPoint x="740" y="827"/>
                            <mxPoint x="740" y="580"/>
                            <mxPoint x="740" y="333"/>
                        </Array>
                    </mxGeometry>
                </mxCell>
                <mxCell id="20" value="" style="endArrow=open;endFill=1;endSize=12;html=1;exitX=1.006;exitY=0.301;exitDx=0;exitDy=0;exitPerimeter=0;labelBackgroundColor=#F1FAEE;strokeColor=#457B9D;fontColor=#1D3557;sketch=1;" parent="1" source="15" edge="1">
                    <mxGeometry width="160" relative="1" as="geometry">
                        <mxPoint x="330" y="530" as="sourcePoint"/>
                        <mxPoint x="560" y="330" as="targetPoint"/>
                        <Array as="points">
                            <mxPoint x="740" y="691"/>
                            <mxPoint x="740" y="520"/>
                            <mxPoint x="740" y="330"/>
                        </Array>
                    </mxGeometry>
                </mxCell>
                <mxCell id="24" value="Extends" style="endArrow=block;endSize=16;endFill=0;html=1;edgeStyle=orthogonalEdgeStyle;labelBackgroundColor=#F1FAEE;strokeColor=#457B9D;fontColor=#1D3557;sketch=1;exitX=-0.004;exitY=0.316;exitDx=0;exitDy=0;exitPerimeter=0;" parent="1" source="18" edge="1">
                    <mxGeometry width="160" relative="1" as="geometry">
                        <mxPoint x="330" y="810" as="sourcePoint"/>
                        <mxPoint x="363" y="760" as="targetPoint"/>
                        <Array as="points">
                            <mxPoint x="410" y="832"/>
                            <mxPoint x="410" y="760"/>
                        </Array>
                    </mxGeometry>
                </mxCell>
                <mxCell id="25" value="Extends" style="endArrow=block;endSize=16;endFill=0;html=1;exitX=-0.02;exitY=0.167;exitDx=0;exitDy=0;edgeStyle=orthogonalEdgeStyle;labelBackgroundColor=#F1FAEE;strokeColor=#457B9D;fontColor=#1D3557;sketch=1;exitPerimeter=0;entryX=1;entryY=0.5;entryDx=0;entryDy=0;" parent="1" source="15" target="9" edge="1">
                    <mxGeometry width="160" relative="1" as="geometry">
                        <mxPoint x="330" y="810" as="sourcePoint"/>
                        <mxPoint x="410" y="784" as="targetPoint"/>
                        <Array as="points">
                            <mxPoint x="412" y="683"/>
                            <mxPoint x="412" y="759"/>
                        </Array>
                    </mxGeometry>
                </mxCell>
                <mxCell id="27" value="1" style="endArrow=open;html=1;endSize=12;startArrow=diamondThin;startSize=14;startFill=1;edgeStyle=orthogonalEdgeStyle;align=left;verticalAlign=bottom;fontColor=#1D3557;strokeColor=#457B9D;fillColor=#A8DADC;" parent="1" edge="1">
                    <mxGeometry x="-1" y="14" relative="1" as="geometry">
                        <mxPoint x="280" y="597" as="sourcePoint"/>
                        <mxPoint x="532" y="868" as="targetPoint"/>
                        <Array as="points">
                            <mxPoint x="280" y="609"/>
                            <mxPoint x="280" y="663"/>
                            <mxPoint x="95" y="663"/>
                            <mxPoint x="95" y="896"/>
                            <mxPoint x="532" y="896"/>
                        </Array>
                        <mxPoint as="offset"/>
                    </mxGeometry>
                </mxCell>
                <mxCell id="28" value="1" style="endArrow=open;html=1;endSize=12;startArrow=diamondThin;startSize=14;startFill=1;edgeStyle=orthogonalEdgeStyle;align=left;verticalAlign=bottom;fontColor=#1D3557;strokeColor=#457B9D;fillColor=#A8DADC;entryX=0;entryY=0.25;entryDx=0;entryDy=0;exitX=0.507;exitY=1.039;exitDx=0;exitDy=0;exitPerimeter=0;" parent="1" source="6" target="12" edge="1">
                    <mxGeometry x="-0.9433" y="11" relative="1" as="geometry">
                        <mxPoint x="286" y="621" as="sourcePoint"/>
                        <mxPoint x="372" y="534" as="targetPoint"/>
                        <mxPoint as="offset"/>
                    </mxGeometry>
                </mxCell>
            </root>
        </mxGraphModel>
    </diagram>
</mxfile>